<?xml version="1.0" standalone="no"?>
<!DOCTYPE svg PUBLIC "-//W3C//DTD SVG 20010904//EN"
 "http://www.w3.org/TR/2001/REC-SVG-20010904/DTD/svg10.dtd">
<svg version="1.0" xmlns="http://www.w3.org/2000/svg"
 width="300.000000pt" height="300.000000pt" viewBox="0 0 300.000000 300.000000"
 preserveAspectRatio="xMidYMid meet">
<metadata>
Created by potrace 1.14, written by Peter Selinger 2001-2017
</metadata>
<g transform="translate(0.000000,300.000000) scale(0.100000,-0.100000)"
fill="#000000" stroke="none">
<path d="M1122 2256 l3 -318 163 -156 162 -155 0 309 0 309 -165 165 -165 165
2 -319z"/>
<path d="M1717 2406 l-168 -161 1 -307 c0 -170 3 -308 8 -308 4 0 80 73 170
163 l162 163 -2 306 -3 306 -168 -162z"/>
<path d="M690 2200 l0 -110 110 0 110 0 0 110 0 110 -110 0 -110 0 0 -110z"/>
<path d="M2100 2200 l0 -110 110 0 110 0 0 110 0 110 -110 0 -110 0 0 -110z"/>
<path d="M590 1720 l162 -170 309 0 c170 0 309 3 309 8 0 4 -73 80 -163 170
l-162 162 -309 0 -308 0 162 -170z"/>
<path d="M1792 1727 c-89 -89 -162 -166 -162 -170 0 -4 138 -7 308 -7 l307 0
115 118 c64 64 138 141 165 170 l49 52 -309 0 -310 0 -163 -163z"/>
<path d="M1430 1505 l0 -75 75 0 75 0 0 75 0 75 -75 0 -75 0 0 -75z"/>
<path d="M590 1285 l-165 -165 315 0 315 0 85 88 c47 48 119 122 160 165 l74
77 -309 0 -310 0 -165 -165z"/>
<path d="M1786 1285 l158 -165 315 0 314 0 -159 164 -159 164 -313 1 -314 1
158 -165z"/>
<path d="M1282 1211 l-162 -156 2 -312 3 -311 163 159 162 160 -2 308 -3 308
-163 -156z"/>
<path d="M1550 1061 l0 -309 168 -161 167 -161 3 307 2 307 -162 163 c-90 90
-166 163 -170 163 -5 0 -8 -139 -8 -309z"/>
<path d="M690 800 l0 -110 110 0 110 0 0 110 0 110 -110 0 -110 0 0 -110z"/>
<path d="M2100 790 l0 -110 110 0 110 0 0 110 0 110 -110 0 -110 0 0 -110z"/>
</g>
</svg>
