<?xml version="1.0" encoding="utf-8"?>
<!-- Generator: Adobe Illustrator 26.5.0, SVG Export Plug-In . SVG Version: 6.00 Build 0)  -->
<svg version="1.1" id="Layer_1" xmlns="http://www.w3.org/2000/svg" xmlns:xlink="http://www.w3.org/1999/xlink" x="0px" y="0px"
	 viewBox="0 0 283.5 113.4" style="enable-background:new 0 0 283.5 113.4;" xml:space="preserve">
<style type="text/css">
	.st0{fill:#ED1C24;}
</style>
<g>
	<g>
		<g>
			<path d="M102.2,81.6h0.4l-2.4,5.6h-0.3l-2.4-5.6h0.3l2.2,5.2L102.2,81.6z"/>
			<path d="M103.4,87.2v-5.6h3.4v0.3h-3.1v2.3h2.9v0.3h-2.9v2.4h3.1v0.3H103.4z"/>
			<path d="M112.2,87.2h-0.3l-0.7-1.9c-0.1-0.3-0.2-0.5-0.4-0.6c-0.2-0.1-0.4-0.1-0.7-0.1h-1.8v2.6H108v-5.6h2.1
				c0.6,0,1,0.1,1.3,0.4c0.3,0.3,0.5,0.6,0.5,1.1c0,0.4-0.1,0.7-0.3,0.9c-0.2,0.2-0.5,0.4-0.8,0.5c0.2,0,0.3,0.1,0.4,0.2
				c0.1,0.1,0.2,0.3,0.3,0.5L112.2,87.2z M110.1,84.3c0.5,0,0.8-0.1,1.1-0.3c0.2-0.2,0.4-0.5,0.4-0.9c0-0.8-0.5-1.2-1.5-1.2h-1.8
				v2.4H110.1z"/>
			<path d="M113.4,87.2v-5.6h3.4v0.3h-3.1v2.3h2.9v0.3h-2.9v2.4h3.1v0.3H113.4z"/>
			<path d="M122,81.6h0.3v5.6h-0.3l-3.7-5.1v5.1H118v-5.6h0.3l3.7,5.1V81.6z"/>
			<path d="M123.9,87.2v-5.6h0.3v5.6H123.9z"/>
			<path d="M130,84.4v2.5c-0.2,0.1-0.5,0.2-0.8,0.3c-0.4,0.1-0.7,0.1-1.1,0.1c-0.5,0-1-0.1-1.4-0.3c-0.4-0.2-0.7-0.6-0.9-1
				c-0.2-0.4-0.3-1-0.3-1.6c0-0.6,0.1-1.1,0.3-1.5c0.2-0.4,0.5-0.8,0.9-1c0.4-0.2,0.8-0.3,1.4-0.3c0.8,0,1.4,0.3,1.9,0.8l-0.2,0.3
				c-0.3-0.3-0.5-0.4-0.8-0.5c-0.3-0.1-0.6-0.2-0.9-0.2c-0.7,0-1.2,0.2-1.6,0.7c-0.4,0.4-0.6,1.1-0.6,1.9c0,0.8,0.2,1.5,0.6,1.9
				c0.4,0.4,0.9,0.7,1.7,0.7c0.3,0,0.6,0,0.9-0.1s0.5-0.1,0.7-0.2v-2h-1.6v-0.3H130z"/>
			<path d="M131.5,87.2v-5.6h0.3v5.6H131.5z"/>
			<path d="M137.3,81.6h0.3v5.6h-0.3l-3.7-5.1v5.1h-0.3v-5.6h0.3l3.7,5.1V81.6z"/>
			<path d="M143.4,84.4v2.5c-0.2,0.1-0.5,0.2-0.8,0.3c-0.4,0.1-0.7,0.1-1.1,0.1c-0.5,0-1-0.1-1.4-0.3c-0.4-0.2-0.7-0.6-0.9-1
				c-0.2-0.4-0.3-1-0.3-1.6c0-0.6,0.1-1.1,0.3-1.5c0.2-0.4,0.5-0.8,0.9-1c0.4-0.2,0.8-0.3,1.4-0.3c0.8,0,1.4,0.3,1.9,0.8l-0.2,0.3
				c-0.3-0.3-0.5-0.4-0.8-0.5c-0.3-0.1-0.6-0.2-0.9-0.2c-0.7,0-1.2,0.2-1.6,0.7c-0.4,0.4-0.6,1.1-0.6,1.9c0,0.8,0.2,1.5,0.6,1.9
				c0.4,0.4,0.9,0.7,1.7,0.7c0.3,0,0.6,0,0.9-0.1s0.5-0.1,0.7-0.2v-2h-1.6v-0.3H143.4z"/>
			<path d="M150.6,84.8c0.2,0.2,0.3,0.5,0.3,0.9c0,0.5-0.2,0.9-0.5,1.1s-0.8,0.4-1.4,0.4h-2.2v-5.6h2.1c0.6,0,1,0.1,1.3,0.4
				c0.3,0.3,0.5,0.6,0.5,1.1c0,0.3-0.1,0.6-0.2,0.8c-0.2,0.2-0.4,0.4-0.7,0.5C150.2,84.4,150.4,84.6,150.6,84.8z M147.2,84.2h1.7
				c0.5,0,0.8-0.1,1.1-0.3c0.2-0.2,0.4-0.5,0.4-0.9c0-0.8-0.5-1.1-1.5-1.1h-1.7V84.2z M150.2,86.6c0.2-0.2,0.4-0.5,0.4-0.9
				c0-0.8-0.5-1.2-1.5-1.2h-1.8v2.4h1.8C149.6,86.9,149.9,86.8,150.2,86.6z"/>
			<path d="M152.2,87.2v-5.6h3.4v0.3h-3.1v2.3h2.9v0.3h-2.9v2.4h3.1v0.3H152.2z"/>
			<path d="M156.8,87.2v-5.6h0.3v5.3h3v0.3H156.8z"/>
			<path d="M165.2,87.2l-0.7-1.6h-3.1l-0.7,1.6h-0.4l2.4-5.6h0.3l2.4,5.6H165.2z M161.5,85.3h2.9L163,82L161.5,85.3z"/>
			<path d="M170.8,87.2h-0.3l-0.7-1.9c-0.1-0.3-0.2-0.5-0.4-0.6c-0.2-0.1-0.4-0.1-0.7-0.1h-1.8v2.6h-0.3v-5.6h2.1
				c0.6,0,1,0.1,1.3,0.4c0.3,0.3,0.5,0.6,0.5,1.1c0,0.4-0.1,0.7-0.3,0.9c-0.2,0.2-0.5,0.4-0.8,0.5c0.2,0,0.3,0.1,0.4,0.2
				c0.1,0.1,0.2,0.3,0.3,0.5L170.8,87.2z M168.7,84.3c0.5,0,0.8-0.1,1.1-0.3c0.2-0.2,0.4-0.5,0.4-0.9c0-0.8-0.5-1.2-1.5-1.2h-1.8
				v2.4H168.7z"/>
			<path d="M172.5,86.7c-0.4-0.4-0.5-0.9-0.5-1.6v-3.5h0.3v3.6c0,1.2,0.6,1.8,1.8,1.8c0.6,0,1-0.2,1.3-0.5c0.3-0.3,0.5-0.8,0.5-1.4
				v-3.6h0.3v3.5c0,0.7-0.2,1.3-0.5,1.6c-0.4,0.4-0.9,0.6-1.6,0.6C173.4,87.3,172.9,87.1,172.5,86.7z"/>
			<path d="M178.3,87.1c-0.3-0.1-0.6-0.3-0.9-0.6l0.2-0.3c0.3,0.3,0.6,0.4,0.8,0.6s0.6,0.2,1,0.2c0.5,0,0.9-0.1,1.2-0.3
				c0.3-0.2,0.4-0.5,0.4-0.9c0-0.2-0.1-0.4-0.2-0.5c-0.1-0.1-0.3-0.2-0.5-0.3s-0.5-0.1-0.8-0.2c-0.4-0.1-0.8-0.2-1-0.3
				c-0.3-0.1-0.5-0.2-0.7-0.4c-0.2-0.2-0.3-0.5-0.3-0.8c0-0.3,0.1-0.6,0.2-0.8s0.4-0.4,0.7-0.5c0.3-0.1,0.6-0.2,1-0.2
				c0.8,0,1.4,0.3,1.9,0.8l-0.2,0.3c-0.3-0.2-0.5-0.4-0.8-0.5c-0.3-0.1-0.6-0.2-0.9-0.2c-0.5,0-0.9,0.1-1.2,0.3
				c-0.3,0.2-0.4,0.5-0.4,0.9c0,0.3,0.1,0.6,0.4,0.8c0.2,0.2,0.6,0.3,1,0.4l0.4,0.1c0.4,0.1,0.7,0.2,0.9,0.3
				c0.2,0.1,0.4,0.2,0.6,0.4c0.2,0.2,0.2,0.4,0.2,0.7c0,0.3-0.1,0.6-0.2,0.8c-0.2,0.2-0.4,0.4-0.7,0.5c-0.3,0.1-0.6,0.2-1,0.2
				C179,87.3,178.6,87.2,178.3,87.1z"/>
			<path d="M183.1,87.1c-0.3-0.1-0.6-0.3-0.9-0.6l0.2-0.3c0.3,0.3,0.6,0.4,0.8,0.6s0.6,0.2,1,0.2c0.5,0,0.9-0.1,1.2-0.3
				c0.3-0.2,0.4-0.5,0.4-0.9c0-0.2-0.1-0.4-0.2-0.5c-0.1-0.1-0.3-0.2-0.5-0.3s-0.5-0.1-0.8-0.2c-0.4-0.1-0.8-0.2-1-0.3
				c-0.3-0.1-0.5-0.2-0.7-0.4c-0.2-0.2-0.3-0.5-0.3-0.8c0-0.3,0.1-0.6,0.2-0.8s0.4-0.4,0.7-0.5c0.3-0.1,0.6-0.2,1-0.2
				c0.8,0,1.4,0.3,1.9,0.8l-0.2,0.3c-0.3-0.2-0.5-0.4-0.8-0.5c-0.3-0.1-0.6-0.2-0.9-0.2c-0.5,0-0.9,0.1-1.2,0.3
				c-0.3,0.2-0.4,0.5-0.4,0.9c0,0.3,0.1,0.6,0.4,0.8c0.2,0.2,0.6,0.3,1,0.4l0.4,0.1c0.4,0.1,0.7,0.2,0.9,0.3
				c0.2,0.1,0.4,0.2,0.6,0.4c0.2,0.2,0.2,0.4,0.2,0.7c0,0.3-0.1,0.6-0.2,0.8c-0.2,0.2-0.4,0.4-0.7,0.5c-0.3,0.1-0.6,0.2-1,0.2
				C183.8,87.3,183.4,87.2,183.1,87.1z"/>
			<path d="M187.3,87.2v-5.6h3.4v0.3h-3.1v2.3h2.9v0.3h-2.9v2.4h3.1v0.3H187.3z"/>
			<path d="M195.9,81.6h0.3v5.6H196l-3.7-5.1v5.1h-0.3v-5.6h0.3l3.7,5.1V81.6z"/>
			<path d="M199.8,87.2v-5.6h0.3v5.6H199.8z"/>
			<path d="M205.6,81.6h0.3v5.6h-0.3l-3.7-5.1v5.1h-0.3v-5.6h0.3l3.7,5.1V81.6z"/>
			<path d="M213.5,81.6h0.3v5.6h-0.3l-3.7-5.1v5.1h-0.3v-5.6h0.3l3.7,5.1V81.6z"/>
			<path d="M215.3,87.2v-5.6h3.4v0.3h-3.1v2.3h2.9v0.3h-2.9v2.4h3.1v0.3H215.3z"/>
			<path d="M219.9,81.6h1.7c0.9,0,1.6,0.2,2,0.7c0.5,0.5,0.7,1.2,0.7,2.1c0,0.9-0.2,1.6-0.7,2.1c-0.5,0.5-1.2,0.7-2,0.7h-1.7V81.6z
				 M221.7,86.9c0.8,0,1.4-0.2,1.8-0.6c0.4-0.4,0.6-1.1,0.6-1.9s-0.2-1.5-0.6-1.9s-1-0.6-1.8-0.6h-1.4v5H221.7z"/>
			<path d="M225.7,87.2v-5.6h3.4v0.3h-3.1v2.3h2.9v0.3h-2.9v2.4h3.1v0.3H225.7z"/>
			<path d="M234.6,87.2h-0.3l-0.7-1.9c-0.1-0.3-0.2-0.5-0.4-0.6c-0.2-0.1-0.4-0.1-0.7-0.1h-1.8v2.6h-0.3v-5.6h2.1
				c0.6,0,1,0.1,1.3,0.4c0.3,0.3,0.5,0.6,0.5,1.1c0,0.4-0.1,0.7-0.3,0.9c-0.2,0.2-0.5,0.4-0.8,0.5c0.2,0,0.3,0.1,0.4,0.2
				c0.1,0.1,0.2,0.3,0.3,0.5L234.6,87.2z M232.5,84.3c0.5,0,0.8-0.1,1.1-0.3c0.2-0.2,0.4-0.5,0.4-0.9c0-0.8-0.5-1.2-1.5-1.2h-1.8
				v2.4H232.5z"/>
			<path d="M235.8,87.2v-5.6h0.3v5.3h3v0.3H235.8z"/>
			<path d="M244.1,87.2l-0.7-1.6h-3.1l-0.7,1.6h-0.4l2.4-5.6h0.3l2.4,5.6H244.1z M240.5,85.3h2.9l-1.4-3.3L240.5,85.3z"/>
			<path d="M249.5,81.6h0.3v5.6h-0.3l-3.7-5.1v5.1h-0.3v-5.6h0.3l3.7,5.1V81.6z"/>
			<path d="M251.4,81.6h1.7c0.9,0,1.6,0.2,2,0.7c0.5,0.5,0.7,1.2,0.7,2.1c0,0.9-0.2,1.6-0.7,2.1c-0.5,0.5-1.2,0.7-2,0.7h-1.7V81.6z
				 M253.1,86.9c0.8,0,1.4-0.2,1.8-0.6c0.4-0.4,0.6-1.1,0.6-1.9s-0.2-1.5-0.6-1.9s-1-0.6-1.8-0.6h-1.4v5H253.1z"/>
		</g>
		<g>
			<path class="st0" d="M130.1,76.1V49.8L119.9,66h-4.3l-10-15.8v25.9h-8.3V36.7h9.6l12,18.6l11.8-18.6h8.3v39.3H130.1z"/>
			<path class="st0" d="M143.8,76.1v-0.9l14.1-38.5h9.6l13.2,38.5v0.9h-9l-2.1-6.4h-15.2l-2.1,6.4H143.8z M167.4,62.8l-5.2-16
				l-5.4,16H167.4z"/>
			<path class="st0" d="M185.7,76.1V36.7h15c2.1,0,4,0.2,5.8,0.7c1.8,0.4,3.3,1.1,4.6,2.1c1.3,0.9,2.3,2.2,3,3.6
				c0.7,1.5,1.1,3.3,1.1,5.4c0,2.6-0.6,4.7-1.7,6.5s-2.8,3.2-4.9,4.4l9.4,15.8v0.9h-9.6l-7.1-13h-6.8v13H185.7z M202.4,56.2
				c0.5-0.3,1-0.7,1.5-1.2c0.5-0.5,0.9-1,1.3-1.6c0.4-0.6,0.7-1.3,0.9-2c0.2-0.7,0.3-1.5,0.3-2.3c0-1-0.2-1.9-0.5-2.6
				c-0.4-0.7-0.8-1.3-1.5-1.7c-0.6-0.4-1.4-0.8-2.2-1c-0.9-0.2-1.8-0.3-2.8-0.3h-4.9v12.6H202.4z"/>
			<path class="st0" d="M219.5,76.1v-0.9l14.1-38.5h9.6l13.2,38.5v0.9h-9l-2.1-6.4h-15.2l-2.1,6.4H219.5z M243.1,62.8l-5.2-16
				l-5.4,16H243.1z"/>
		</g>
		
			<rect x="74.3" y="33.5" transform="matrix(-1.836970e-16 1 -1 -1.836970e-16 113.991 -40.8166)" class="st0" width="6.2" height="6.2"/>
		
			<rect x="34.5" y="73.3" transform="matrix(-1.836970e-16 1 -1 -1.836970e-16 113.991 38.8262)" class="st0" width="6.2" height="6.2"/>
		
			<rect x="74.5" y="73.5" transform="matrix(-1.836970e-16 1 -1 -1.836970e-16 154.1578 -1.0422)" class="st0" width="6.2" height="6.2"/>
		
			<rect x="34.5" y="33.5" transform="matrix(2.929152e-13 1 -1 2.929152e-13 74.1765 -1.0422)" class="st0" width="6.2" height="6.2"/>
		
			<rect x="55.3" y="54.3" transform="matrix(4.261420e-13 1 -1 4.261420e-13 113.8113 -1.0422)" class="st0" width="4.3" height="4.3"/>
		<g>
			<g>
				<g>
					<polygon class="st0" points="46.6,26.1 56,35.3 56,52.9 46.6,43.7 					"/>
					<polygon class="st0" points="68.4,26.1 58.9,35.3 58.9,52.9 68.4,43.7 					"/>
				</g>
				<g>
					<polygon class="st0" points="46.6,86.9 56,77.6 56,60 46.6,69.3 					"/>
					<polygon class="st0" points="68.4,86.9 58.9,77.6 58.9,60 68.4,69.3 					"/>
				</g>
			</g>
			<g>
				<g>
					<polygon class="st0" points="87.8,45.5 78.6,54.9 61,54.9 70.2,45.5 					"/>
					<polygon class="st0" points="87.8,67.3 78.6,57.9 61,57.9 70.2,67.3 					"/>
				</g>
				<g>
					<polygon class="st0" points="27,45.5 36.3,54.9 53.9,54.9 44.6,45.5 					"/>
					<polygon class="st0" points="27,67.3 36.3,57.9 53.9,57.9 44.6,67.3 					"/>
				</g>
			</g>
		</g>
	</g>
	<polygon class="st0" points="168.9,26.9 161.5,26.9 159,33.6 166.4,33.6 	"/>
</g>
</svg>
