<?xml version="1.0" encoding="utf-8"?>
<!-- Generator: Adobe Illustrator 26.5.0, SVG Export Plug-In . SVG Version: 6.00 Build 0)  -->
<svg version="1.1" id="Layer_1" xmlns="http://www.w3.org/2000/svg" xmlns:xlink="http://www.w3.org/1999/xlink" x="0px" y="0px"
	 viewBox="0 0 85 85" style="enable-background:new 0 0 85 85;" xml:space="preserve">
<style type="text/css">
	.st0{fill:#FFFFFF;}
</style>
<g>
	
		<rect x="59.4" y="19.5" transform="matrix(-1.836970e-16 1 -1 -1.836970e-16 85.1358 -39.8867)" class="st0" width="6.2" height="6.2"/>
	
		<rect x="19.6" y="59.3" transform="matrix(-1.836970e-16 1 -1 -1.836970e-16 85.1358 39.756)" class="st0" width="6.2" height="6.2"/>
	
		<rect x="59.6" y="59.5" transform="matrix(-1.836970e-16 1 -1 -1.836970e-16 125.3026 -0.1123)" class="st0" width="6.2" height="6.2"/>
	
		<rect x="19.6" y="19.5" transform="matrix(2.929152e-13 1 -1 2.929152e-13 45.3214 -0.1123)" class="st0" width="6.2" height="6.2"/>
	
		<rect x="40.4" y="40.3" transform="matrix(4.261420e-13 1 -1 4.261420e-13 84.9561 -0.1123)" class="st0" width="4.3" height="4.3"/>
	<g>
		<g>
			<g>
				<polygon class="st0" points="31.7,12.2 41.1,21.4 41.1,39 31.7,29.7 				"/>
				<polygon class="st0" points="53.5,12.2 44.1,21.4 44.1,39 53.5,29.7 				"/>
			</g>
			<g>
				<polygon class="st0" points="31.7,72.9 41.1,63.7 41.1,46.1 31.7,55.3 				"/>
				<polygon class="st0" points="53.5,72.9 44.1,63.7 44.1,46.1 53.5,55.3 				"/>
			</g>
		</g>
		<g>
			<g>
				<polygon class="st0" points="72.9,31.5 63.7,41 46.1,41 55.3,31.5 				"/>
				<polygon class="st0" points="72.9,53.3 63.7,43.9 46.1,43.9 55.3,53.3 				"/>
			</g>
			<g>
				<polygon class="st0" points="12.2,31.5 21.4,41 39,41 29.7,31.5 				"/>
				<polygon class="st0" points="12.2,53.3 21.4,43.9 39,43.9 29.7,53.3 				"/>
			</g>
		</g>
	</g>
</g>
</svg>
